<?xml version="1.0" encoding="UTF-8" standalone="no"?>
<!-- Generator: Adobe Illustrator 19.0.0, SVG Export Plug-In . SVG Version: 6.00 Build 0)  -->

<svg
   xmlns:dc="http://purl.org/dc/elements/1.1/"
   xmlns:cc="http://creativecommons.org/ns#"
   xmlns:rdf="http://www.w3.org/1999/02/22-rdf-syntax-ns#"
   xmlns:svg="http://www.w3.org/2000/svg"
   xmlns="http://www.w3.org/2000/svg"
   xmlns:sodipodi="http://sodipodi.sourceforge.net/DTD/sodipodi-0.dtd"
   xmlns:inkscape="http://www.inkscape.org/namespaces/inkscape"
   version="1.1"
   id="Layer_1"
   x="0px"
   y="0px"
   viewBox="0 0 197.5 80.1"
   enable-background="new 0 0 197.5 80.1"
   xml:space="preserve"
   inkscape:version="0.91 r13725"
   sodipodi:docname="logo-cito.svg"><metadata
     id="metadata3373"><rdf:RDF><cc:Work
         rdf:about=""><dc:format>image/svg+xml</dc:format><dc:type
           rdf:resource="http://purl.org/dc/dcmitype/StillImage" /></cc:Work></rdf:RDF></metadata><defs
     id="defs3371" /><sodipodi:namedview
     pagecolor="#ffffff"
     bordercolor="#666666"
     borderopacity="1"
     objecttolerance="10"
     gridtolerance="10"
     guidetolerance="10"
     inkscape:pageopacity="0"
     inkscape:pageshadow="2"
     inkscape:window-width="2560"
     inkscape:window-height="1378"
     id="namedview3369"
     showgrid="false"
     inkscape:zoom="8.6105914"
     inkscape:cx="107.17815"
     inkscape:cy="27.332603"
     inkscape:window-x="-8"
     inkscape:window-y="-8"
     inkscape:window-maximized="1"
     inkscape:current-layer="Layer_1" /><rect
     x="-10.7"
     y="-11"
     fill="none"
     width="221.1"
     height="102"
     id="rect3337" /><path
     fill="#FFFFFF"
     d="M79.1,33.2c-1-2.1-3-4.8-5.6-7.6c1.3-8.9-0.6-16.2-5.8-19.6C58.9,0.3,16.5-6.6,3.8,12.9  c-12.4,19.2,8,51.5,21.7,63.7c8.5,7.6,23.8,1.5,33.9-5.9C75,59.4,83.6,42.9,79.1,33.2z"
     id="path3361" /><path
     fill="#ED2482"
     d="M77.5,33.9c-0.9-2-3-4.8-5.9-7.8C70.4,33.5,67,42,61.7,50.3C50.1,68.2,33.6,78.1,24.8,72.4  c4.1,8.9,19.1,7.5,33.7-3.2C73,58.6,81.6,42.8,77.5,33.9z"
     id="path3363" /><path
     fill="#0079AB"
     d="M55.5,31c-3.2,0-3.9,2.5-3.9,5.4c0,2.9,0.7,5.4,3.9,5.4c3.2,0,3.9-2.5,3.9-5.4C59.3,33.5,58.7,31,55.5,31z   M32.5,12.5c-3.4,2.5-5.8,6.6-7.5,11.5c0.9,0.5,1.6,1.4,1.6,2.6c0,1.6-1.3,2.9-2.9,2.9c-0.1,0-0.2,0-0.2,0c-0.2,0.9-0.4,1.8-0.5,2.7  l3.3,0c0,0.3,0,1.8,0,1.8c0,3-1.4,4.5-2.6,5.9c-0.9,1-1.7,1.9-1.7,3.3c0,1.6,1.2,2.6,3.4,2.6c1.1,0,2.8-0.4,4.4-1l0.7,3.7  c-2.2,0.7-4.7,1.2-6.3,1.2c-0.6,0-1.6,0-2.6-0.3c0.1,10.2,1.5,19.5,3.2,23.2c8.8,5.7,25.3-4.2,36.9-22.2c5.3-8.3,8.7-16.8,9.9-24.2  C62,16.2,43.8,4.3,32.5,12.5z M44.8,30.8c-0.6,0.6-1.7,0.6-3.1,0.6l-1.3,0v14.1c-0.3,0-4.8,0-5.1,0c0-0.4,0-14.1,0-14.1  s-4.4,0-4.8,0c0-0.3,0-3.8,0-4.1c0.4,0,14.8,0,15.2,0C45.6,29.2,45.4,30.3,44.8,30.8z M55.5,45.9c-6.1,0-9-3.1-9-9.5  c0-6.2,3.1-9.5,9-9.5c6.1,0,9,3.1,9,9.5C64.5,42.6,61.4,45.9,55.5,45.9z"
     id="path3365" /><path
     fill="#00B6DE"
     d="M66.7,7.5C57.9,1.8,16.9-4.1,5.4,13.9C2,19.1,1.5,25.8,2.7,32.8c1.2-3.8,4.4-6,9.2-6c1.5,0,3.4,0.3,4.7,0.8  c0,0.3-0.7,3.7-0.7,4c-1-0.3-2.7-0.8-3.7-0.8c-3.2,0-4.6,1.7-4.6,5.4c0,2.3,0.5,5.3,4.4,5.3c0.4,0,0.9,0,1.3-0.1l0.4,4  c-0.6,0.1-1.3,0.2-1.9,0.2c-2.3,0-4.2-0.4-5.7-1.2c5.1,13,13.9,24.9,18.7,28c-1.7-3.7-3.1-12.9-3.2-23.2c-2.3-0.5-4.9-1.9-4.9-5.5  c0-2.8,1.3-4.3,2.5-5.7c1.1-1.2,2-2.3,2-4.1c0,0,0-1.5,0-1.8h1.7c0.2-0.9,0.3-1.8,0.6-2.7c-1.5-0.1-2.7-1.4-2.7-2.9  c0-1.6,1.3-2.9,2.9-2.9c0.5,0,0.9,0.1,1.3,0.3c1.7-4.9,4.2-9,7.5-11.5c11.2-8.2,29.4,3.7,39,13.6C73,17.5,71.5,10.6,66.7,7.5z"
     id="path3367" /></svg>